<svg width="50" height="50" viewBox="0 0 50 50" fill="none" xmlns="http://www.w3.org/2000/svg">
<path d="M50 0L0 0L0 50H50V0Z" fill="#231E1B"/>
<path fill-rule="evenodd" clip-rule="evenodd" d="M24.9618 12.8C18.081 12.8 12.5 18.381 12.5 25.2618C12.5 30.7663 16.0933 35.43 20.9862 37.1119C21.5979 37.1884 21.8272 36.8061 21.8272 36.5003C21.8272 36.1945 21.8272 35.43 21.8272 34.3596C18.3868 35.1241 17.6223 32.6777 17.6223 32.6777C17.0872 31.2251 16.2462 30.8428 16.2462 30.8428C15.0994 30.0783 16.3226 30.0783 16.3226 30.0783C17.5459 30.1547 18.2339 31.378 18.2339 31.378C19.3807 33.2893 21.1391 32.7541 21.8272 32.4483C21.9037 31.6073 22.2859 31.0722 22.5917 30.7663C19.8394 30.4605 16.9343 29.3902 16.9343 24.5737C16.9343 23.1975 17.393 22.1272 18.2339 21.2098C18.1575 20.9804 17.6988 19.6807 18.3868 17.9988C18.3868 17.9988 19.4572 17.693 21.8272 19.2985C22.8211 18.9926 23.8914 18.9162 24.9618 18.9162C26.0321 18.9162 27.1024 19.0691 28.0963 19.2985C30.4664 17.693 31.5367 17.9988 31.5367 17.9988C32.2248 19.6807 31.7661 20.9804 31.6896 21.2862C32.4541 22.1272 32.9893 23.274 32.9893 24.6501C32.9893 29.4667 30.0841 30.4605 27.3318 30.7663C27.7905 31.1486 28.1728 31.9131 28.1728 33.0599C28.1728 34.7419 28.1728 36.0416 28.1728 36.5003C28.1728 36.8061 28.4021 37.1884 29.0138 37.1119C33.9832 35.43 37.5 30.7663 37.5 25.2618C37.4235 18.381 31.8425 12.8 24.9618 12.8Z" fill="white"/>
</svg>
