<svg width="50" height="50" viewBox="0 0 50 50" fill="none" xmlns="http://www.w3.org/2000/svg">
<path d="M0 25C0 38.8071 11.1929 50 25 50C38.8071 50 50 38.8071 50 25C50 11.1929 38.8071 0 25 0C11.1929 0 0 11.1929 0 25Z" fill="#1DA1F2"/>
<path d="M37.5 17.1875C36.5625 17.6562 35.625 17.8125 34.5313 17.9687C35.625 17.3437 36.4063 16.4062 36.7188 15.1562C35.7813 15.7812 34.6875 16.0937 33.4375 16.4062C32.5 15.4687 31.0938 14.8438 29.6875 14.8438C26.4063 14.8438 23.9063 17.9687 24.6875 21.0937C20.4688 20.9375 16.7188 18.9063 14.0625 15.7813C12.6563 18.125 13.4375 21.0937 15.625 22.6562C14.8438 22.6562 14.0625 22.3438 13.2813 22.0313C13.2813 24.375 15 26.5625 17.3438 27.1875C16.5625 27.3437 15.7813 27.5 15 27.3437C15.625 29.375 17.5 30.9375 19.8438 30.9375C17.9688 32.3437 15.1563 33.125 12.5 32.8125C14.8438 34.2187 17.5 35.1562 20.3125 35.1562C29.8438 35.1562 35.1563 27.1875 34.8438 19.8437C35.9375 19.2187 36.875 18.2812 37.5 17.1875Z" fill="white"/>
</svg>
